<?xml version="1.0" encoding="UTF-8"?>
<svg width="106px" height="25px" viewBox="0 0 106 25" version="1.1" xmlns="http://www.w3.org/2000/svg" xmlns:xlink="http://www.w3.org/1999/xlink">
    <!-- Generator: sketchtool 52.6 (67491) - http://www.bohemiancoding.com/sketch -->
    <title>074510C7-BDF4-416F-A6C3-8C2B191E0454</title>
    <desc>Created with sketchtool.</desc>
    <defs>
        <polygon id="path-1" points="0.450649718 0.411845238 5.7880791 0.411845238 5.7880791 8.77791667 0.450649718 8.77791667"></polygon>
        <polygon id="path-3" points="0 0.261309524 15.9476102 0.261309524 15.9476102 24.4045833 0 24.4045833"></polygon>
    </defs>
    <g id="Page-1" stroke="none" stroke-width="1" fill="none" fill-rule="evenodd">
        <g id="Landing--" transform="translate(-709.000000, -4264.000000)">
            <g id="Group-21" transform="translate(709.000000, 4264.000000)">
                <path d="M32.2357977,16.3067262 C31.7441254,16.5823214 31.2356847,16.7769643 30.7080802,16.89125 C30.1804757,17.0055357 29.644487,17.0626786 29.0971198,17.0626786 C28.4557299,17.0626786 27.8670407,16.95375 27.3322497,16.7376786 C26.7968599,16.5210119 26.3393232,16.218631 25.9590407,15.8275595 C25.5787582,15.4382738 25.2811198,14.9727976 25.0673232,14.4335119 C24.8535266,13.8942262 24.7463288,13.3055357 24.7463288,12.6668452 C24.7463288,12.0281548 24.8535266,11.4418452 25.0673232,10.906131 C25.2811198,10.3704167 25.5787582,9.90791667 25.9590407,9.51803571 C26.3393232,9.12815476 26.7968599,8.82279762 27.3322497,8.60255952 C27.8670407,8.38232143 28.4557299,8.27160714 29.0971198,8.27160714 C30.3499559,8.27160714 31.3602497,8.65732143 32.1286,9.42934524 L31.5578768,10.0204167 C31.4315153,9.87041667 31.2746113,9.73053571 31.0883627,9.60017857 C30.9021141,9.4710119 30.7002949,9.36089286 30.4823062,9.26982143 C30.2643175,9.17934524 30.0367469,9.10791667 29.7983966,9.05732143 C29.5612441,9.00613095 29.3270859,8.97994048 29.0971198,8.97994048 C28.5503514,8.97994048 28.0568825,9.07458333 27.6173119,9.26386905 C27.1771424,9.45315476 26.8028486,9.71267857 26.4938316,10.0442262 C26.1848147,10.3745833 25.9470633,10.7650595 25.7799785,11.213869 C25.6134927,11.6632738 25.5308486,12.1466071 25.5308486,12.6668452 C25.5308486,13.1870833 25.6134927,13.6722024 25.7799785,14.1198214 C25.9470633,14.5692262 26.1848147,14.9597024 26.4938316,15.2900595 C26.8028486,15.6210119 27.1771424,15.8805357 27.6173119,16.0704167 C28.0568825,16.2597024 28.5503514,16.35375 29.0971198,16.35375 C29.5492667,16.35375 29.9726678,16.318631 30.3691198,16.2472024 C30.7655718,16.1769643 31.1260915,16.0460119 31.4506791,15.8579167 L31.4506791,13.0448214 L29.4300915,13.0448214 L29.4300915,12.3364881 L32.2357977,12.3364881 L32.2357977,16.3067262 Z" id="Fill-1" fill="#FFFFFF"></path>
                <path d="M37.7042599,12.1708333 L39.3685198,12.1708333 C39.7805424,12.1708333 40.1153107,12.1202381 40.3734237,12.0172619 C40.630339,11.914881 40.8303616,11.7886905 40.9728927,11.6386905 C41.1160226,11.4886905 41.2130395,11.327381 41.2645424,11.1541667 C41.3160452,10.9809524 41.3417966,10.8238095 41.3417966,10.6821429 C41.3417966,10.539881 41.3160452,10.3821429 41.2645424,10.2095238 C41.2130395,10.0363095 41.1160226,9.87440476 40.9728927,9.72440476 C40.8303616,9.57559524 40.630339,9.44940476 40.3734237,9.34642857 C40.1153107,9.24464286 39.7805424,9.19285714 39.3685198,9.19285714 L37.7042599,9.19285714 L37.7042599,12.1708333 Z M36.9197401,8.48392857 L39.1307684,8.48392857 C39.2415593,8.48392857 39.3924746,8.48809524 39.5823164,8.49583333 C39.7727571,8.50416667 39.9787684,8.52738095 40.2009492,8.56666667 C40.4225311,8.60595238 40.6483051,8.66964286 40.8782712,8.75595238 C41.1082373,8.84285714 41.3142486,8.96904762 41.496904,9.13392857 C41.6783616,9.29940476 41.8292768,9.50833333 41.948452,9.76011905 C42.0670282,10.0119048 42.1263164,10.3196429 42.1263164,10.6821429 C42.1263164,11.0833333 42.0574463,11.414881 41.9185085,11.675 C41.7795706,11.9345238 41.6058983,12.1452381 41.3956949,12.3065476 C41.1848927,12.4678571 40.9537288,12.5880952 40.6998079,12.6666667 C40.445887,12.7458333 40.2045424,12.8005952 39.9751751,12.8321429 L42.4239548,16.85 L41.5322373,16.85 L39.1667006,12.8791667 L37.7042599,12.8791667 L37.7042599,16.85 L36.9197401,16.85 L36.9197401,8.48392857 Z" id="Fill-3" fill="#FFFFFF"></path>
                <path d="M50.246635,9.33505952 L48.2853356,13.9201786 L52.1486463,13.9201786 L50.246635,9.33505952 Z M49.8777311,8.48386905 L50.6862056,8.48386905 L54.2291209,16.8499405 L53.3493808,16.8499405 L52.4337085,14.6291071 L47.9757198,14.6291071 L47.0247141,16.8499405 L46.2042621,16.8499405 L49.8777311,8.48386905 Z" id="Fill-5" fill="#FFFFFF"></path>
                <path d="M59.3171209,12.1708333 L61.0999571,12.1708333 C61.3221379,12.1708333 61.5401266,12.1452381 61.7539232,12.0940476 C61.9677198,12.0428571 62.1587593,11.960119 62.3246463,11.8458333 C62.4911322,11.7315476 62.625878,11.5803571 62.7288836,11.3910714 C62.8318893,11.2017857 62.8833921,10.9696429 62.8833921,10.6940476 C62.8833921,10.4261905 62.8300927,10.197619 62.7228949,10.0083333 C62.616296,9.81964286 62.4773582,9.66428571 62.3072791,9.54166667 C62.1366011,9.41964286 61.9401718,9.33095238 61.717991,9.27559524 C61.496409,9.2202381 61.2742282,9.19285714 61.0526463,9.19285714 L59.3171209,9.19285714 L59.3171209,12.1708333 Z M58.5320023,8.48392857 L60.957426,8.48392857 C61.2508723,8.48392857 61.5574938,8.51785714 61.879087,8.58511905 C62.2000814,8.65119048 62.4929288,8.76785714 62.7588271,8.93333333 C63.0235277,9.09821429 63.2421153,9.32559524 63.4121944,9.61309524 C63.5828723,9.90059524 63.6685107,10.2613095 63.6685107,10.6940476 C63.6685107,11.0714286 63.5984429,11.3988095 63.460104,11.675 C63.321765,11.9505952 63.1349175,12.1767857 62.9013582,12.3535714 C62.6672,12.5315476 62.3983073,12.6630952 62.0928836,12.75 C61.7874599,12.8363095 61.468861,12.8791667 61.1358893,12.8791667 L59.3171209,12.8791667 L59.3171209,16.85 L58.5320023,16.85 L58.5320023,8.48392857 Z" id="Fill-7" fill="#FFFFFF"></path>
                <polygon id="Fill-9" fill="#FFFFFF" points="67.496009 8.48404762 68.2805288 8.48404762 68.2805288 12.1709524 72.9882463 12.1709524 72.9882463 8.48404762 73.7727661 8.48404762 73.7727661 16.850119 72.9882463 16.850119 72.9882463 12.8792857 68.2805288 12.8792857 68.2805288 16.850119 67.496009 16.850119"></polygon>
                <polygon id="Fill-11" fill="#FFFFFF" points="78.6944 8.48404762 83.8428859 8.48404762 83.8428859 9.19238095 79.4789198 9.19238095 79.4789198 12.1709524 83.5680045 12.1709524 83.5680045 12.8792857 79.4789198 12.8792857 79.4789198 16.1411905 84.0327277 16.1411905 84.0327277 16.850119 78.6944 16.850119"></polygon>
                <polygon id="Fill-13" fill="#FFFFFF" points="88.5968362 8.48404762 89.6071299 8.48404762 94.731661 15.8108333 94.7550169 15.8108333 94.7550169 8.48404762 95.5395367 8.48404762 95.5395367 16.850119 94.5292429 16.850119 89.4059096 9.52392857 89.3813559 9.52392857 89.3813559 16.850119 88.5968362 16.850119"></polygon>
                <g id="Group-17" transform="translate(100.011299, 8.072202)">
                    <mask id="mask-2" fill="white">
                        <use xlink:href="#path-1"></use>
                    </mask>
                    <g id="Clip-16"></g>
                    <polygon id="Fill-15" fill="#FFFFFF" mask="url(#mask-2)" points="0.450649718 0.411845238 5.59853672 0.411845238 5.59853672 1.12017857 1.23516949 1.12017857 1.23516949 4.09875 5.32485311 4.09875 5.32485311 4.80708333 1.23516949 4.80708333 1.23516949 8.0689881 5.78837853 8.0689881 5.78837853 8.77791667 0.450649718 8.77791667"></polygon>
                </g>
                <g id="Group-20" transform="translate(0.000000, 0.334107)">
                    <mask id="mask-4" fill="white">
                        <use xlink:href="#path-3"></use>
                    </mask>
                    <g id="Clip-19"></g>
                    <path d="M15.1582994,19.7367262 C15.0648757,19.8224405 15.0061864,19.9444643 15.0061864,20.0807738 C15.0061864,20.2170833 15.0648757,20.3391071 15.1582994,20.4248214 L14.8678475,20.9248214 C14.8241299,20.9117262 14.7774181,20.9039881 14.7289096,20.9039881 C14.5049322,20.9039881 14.3174859,21.0599405 14.2701751,21.268869 L13.6880734,21.268869 C13.6479492,21.0510119 13.4563107,20.8855357 13.2251469,20.8855357 C13.1772373,20.8855357 13.1311243,20.8926786 13.0874068,20.906369 L12.8035424,20.4176786 C12.892774,20.3325595 12.9484689,20.2129167 12.9484689,20.0807738 C12.9484689,20.0777976 12.9484689,20.0742262 12.9484689,20.07125 C12.9484689,20.0682738 12.9484689,20.0652976 12.9484689,20.0623214 C12.9484689,19.9301786 12.8933729,19.8105357 12.8041412,19.7254167 L13.0748305,19.2599405 C13.1221412,19.2760119 13.1730452,19.2849405 13.2251469,19.2849405 C13.4497232,19.2849405 13.6365706,19.1289881 13.6844802,18.9206548 L14.2701751,18.9206548 C14.3174859,19.1289881 14.5049322,19.2849405 14.7289096,19.2849405 C14.782209,19.2849405 14.8337119,19.2760119 14.8816215,19.2599405 L15.1582994,19.7367262 Z M0.79140678,17.1135119 L1.08245763,16.6123214 C1.12557627,16.6254167 1.17168927,16.6331548 1.21959887,16.6331548 C1.44357627,16.6331548 1.6310226,16.4772024 1.67833333,16.2682738 L2.26402825,16.2682738 C2.31133898,16.4772024 2.49878531,16.6331548 2.72276271,16.6331548 C2.77127119,16.6331548 2.81798305,16.6254167 2.86170056,16.6123214 L3.15215254,17.1123214 C3.08807345,17.1706548 3.04076271,17.2468452 3.01740678,17.3325595 C3.0030339,17.3772024 2.99524859,17.4248214 2.99524859,17.4742262 C2.99524859,17.60875 3.05274011,17.7295833 3.14376836,17.8147024 L2.86170056,18.3004167 C2.81798305,18.2873214 2.77127119,18.2795833 2.72276271,18.2795833 C2.50657062,18.2795833 2.32391525,18.4260119 2.26941808,18.6242262 C2.2670226,18.6307738 2.26582486,18.6373214 2.26402825,18.6444643 L1.67833333,18.6444643 C1.6310226,18.4355357 1.44357627,18.2795833 1.21959887,18.2795833 C1.17168927,18.2795833 1.12557627,18.2867262 1.08245763,18.2998214 L0.79140678,17.7998214 C0.884231638,17.7141071 0.942920904,17.5920833 0.942920904,17.456369 C0.942920904,17.3206548 0.884231638,17.198631 0.79140678,17.1135119 Z M1.21959887,20.8676786 C1.17168927,20.8676786 1.12557627,20.8754167 1.08245763,20.8885119 L0.79140678,20.3879167 C0.884231638,20.3022024 0.942920904,20.1801786 0.942920904,20.0444643 C0.942920904,19.90875 0.884231638,19.7867262 0.79140678,19.7016071 L1.08245763,19.2010119 C1.12557627,19.2141071 1.17168927,19.22125 1.21959887,19.22125 C1.44357627,19.22125 1.6310226,19.0652976 1.67833333,18.856369 L2.25624294,18.856369 C2.29876271,19.07125 2.48980226,19.23375 2.71857062,19.23375 C2.77007345,19.23375 2.82037853,19.2248214 2.8670904,19.2093452 L3.15215254,19.7004167 C3.08807345,19.7593452 3.04076271,19.8349405 3.01740678,19.9206548 C3.0030339,19.9652976 2.99524859,20.0129167 2.99524859,20.0623214 C2.99524859,20.1968452 3.05274011,20.3176786 3.14376836,20.4033929 L2.86170056,20.8891071 C2.81798305,20.8754167 2.77127119,20.8676786 2.72276271,20.8676786 C2.50597175,20.8676786 2.32391525,21.0141071 2.26941808,21.2123214 C2.2670226,21.218869 2.26582486,21.2254167 2.26402825,21.2325595 L1.67833333,21.2325595 C1.6310226,21.0242262 1.44357627,20.8676786 1.21959887,20.8676786 Z M3.46596045,22.1772024 C3.41805085,22.1772024 3.37193785,22.1843452 3.32881921,22.1974405 L3.03776836,21.6968452 C3.10124859,21.6385119 3.14855932,21.5629167 3.17191525,21.4772024 C3.18628814,21.4331548 3.19407345,21.3855357 3.19407345,21.336131 C3.19407345,21.2022024 3.13718079,21.081369 3.04615254,20.99625 L3.32881921,20.5099405 C3.37193785,20.5230357 3.41805085,20.5301786 3.46596045,20.5301786 C3.68275141,20.5301786 3.86540678,20.3843452 3.91990395,20.186131 C3.92170056,20.1795833 3.92349718,20.1724405 3.92529379,20.1658929 L4.51038983,20.1658929 C4.55829944,20.3742262 4.74514689,20.5301786 4.96972316,20.5301786 C5.01763277,20.5301786 5.06434463,20.5230357 5.10866102,20.5093452 L5.39911299,21.0093452 C5.3050904,21.0950595 5.24640113,21.2176786 5.24640113,21.3533929 C5.24640113,21.4897024 5.3050904,21.6123214 5.39911299,21.6974405 L5.10925989,22.1968452 C5.06614124,22.1843452 5.02122599,22.1772024 4.97451412,22.1772024 L4.97211864,22.1772024 L4.96972316,22.1772024 C4.74514689,22.1772024 4.55770056,22.3331548 4.51038983,22.5414881 L3.92529379,22.5414881 C3.87738418,22.3331548 3.69053672,22.1772024 3.46596045,22.1772024 Z M7.22566667,23.468869 C7.0010904,23.468869 6.81424294,23.6248214 6.76633333,23.8331548 L6.18123729,23.8331548 C6.13392655,23.6248214 5.94648023,23.468869 5.72190395,23.468869 C5.67459322,23.468869 5.62788136,23.4760119 5.58476271,23.4891071 L5.29371186,22.9879167 C5.38713559,22.9027976 5.44522599,22.7807738 5.44522599,22.6450595 C5.44522599,22.5093452 5.38713559,22.3879167 5.29371186,22.3022024 L5.58416384,21.8022024 C5.62608475,21.8147024 5.671,21.8218452 5.71711299,21.8218452 C5.71831073,21.8218452 5.7189096,21.82125 5.71950847,21.82125 C5.72070621,21.82125 5.72130508,21.8218452 5.72190395,21.8218452 C5.94648023,21.8218452 6.13392655,21.6658929 6.18123729,21.4575595 L6.76633333,21.4575595 C6.81424294,21.6658929 7.0010904,21.8218452 7.22566667,21.8218452 C7.27357627,21.8218452 7.32088701,21.8147024 7.36460452,21.8010119 L7.6550565,22.3010119 C7.56163277,22.3867262 7.50234463,22.50875 7.50234463,22.6450595 C7.50234463,22.781369 7.56163277,22.9039881 7.6550565,22.9891071 L7.36460452,23.4897024 C7.32088701,23.4760119 7.27357627,23.468869 7.22566667,23.468869 Z M10.2266045,23.468869 C10.0020282,23.468869 9.81518079,23.6248214 9.76787006,23.8331548 L9.18217514,23.8331548 C9.13426554,23.6248214 8.94681921,23.468869 8.72284181,23.468869 C8.6749322,23.468869 8.62881921,23.4760119 8.58570056,23.4891071 L8.29464972,22.9879167 C8.38747458,22.9027976 8.44616384,22.7807738 8.44616384,22.6450595 C8.44616384,22.5093452 8.38747458,22.3879167 8.29464972,22.3022024 L8.58570056,21.8016071 C8.62881921,21.8147024 8.6749322,21.8218452 8.72284181,21.8218452 C8.94681921,21.8218452 9.13426554,21.6658929 9.18217514,21.4575595 L9.76787006,21.4575595 C9.81518079,21.6658929 10.0020282,21.8218452 10.2266045,21.8218452 C10.2745141,21.8218452 10.321226,21.8147024 10.3655424,21.8010119 L10.6553955,22.3010119 C10.5625706,22.3867262 10.5032825,22.50875 10.5032825,22.6450595 C10.5032825,22.781369 10.5625706,22.9039881 10.6553955,22.9891071 L10.3655424,23.4897024 C10.321226,23.4760119 10.2745141,23.468869 10.2266045,23.468869 Z M12.4777571,22.1772024 C12.2531808,22.1772024 12.0663333,22.3331548 12.0184237,22.5414881 L11.4333277,22.5414881 C11.3860169,22.3331548 11.1985706,22.1772024 10.9739944,22.1772024 C10.9266836,22.1772024 10.8799718,22.1843452 10.8368531,22.1974405 L10.5458023,21.6968452 C10.639226,21.611131 10.6973164,21.4891071 10.6973164,21.3533929 C10.6973164,21.2176786 10.6386271,21.09625 10.5458023,21.0105357 L10.8368531,20.5099405 C10.8799718,20.5230357 10.9266836,20.5301786 10.9739944,20.5301786 C11.1985706,20.5301786 11.3860169,20.3742262 11.4333277,20.1658929 L12.0148305,20.1658929 C12.0549548,20.38375 12.2471921,20.548631 12.4777571,20.548631 C12.5262655,20.548631 12.5729774,20.5414881 12.6172938,20.5277976 L12.9005593,21.0152976 C12.8107288,21.1010119 12.754435,21.2206548 12.754435,21.3533929 C12.754435,21.3569643 12.7550339,21.3599405 12.7550339,21.3629167 C12.7550339,21.3658929 12.754435,21.368869 12.754435,21.3724405 C12.754435,21.5051786 12.8107288,21.6248214 12.8999605,21.7099405 L12.6166949,22.1980357 C12.5729774,22.1843452 12.5256667,22.1772024 12.4777571,22.1772024 Z M14.7289096,5.42720238 C14.5049322,5.42720238 14.3174859,5.58315476 14.2701751,5.7914881 L13.6844802,5.7914881 C13.6371695,5.58315476 13.4497232,5.42720238 13.2251469,5.42720238 C13.1778362,5.42720238 13.1317232,5.43434524 13.0880056,5.44744048 L12.7975537,4.94684524 C12.8897797,4.86113095 12.9484689,4.73970238 12.9484689,4.6039881 C12.9484689,4.46827381 12.8897797,4.34625 12.7975537,4.26053571 L13.0880056,3.75994048 C13.1317232,3.77303571 13.1778362,3.78017857 13.2251469,3.78017857 C13.4497232,3.78017857 13.6371695,3.62422619 13.6844802,3.41589286 L14.2701751,3.41589286 C14.3174859,3.62422619 14.5049322,3.78017857 14.7289096,3.78017857 C14.7774181,3.78017857 14.8241299,3.77303571 14.8678475,3.75934524 L15.1582994,4.25994048 C15.0648757,4.34505952 15.0061864,4.46767857 15.0061864,4.6039881 C15.0061864,4.73970238 15.0648757,4.86232143 15.1582994,4.94744048 L14.8678475,5.44803571 C14.8241299,5.43434524 14.7774181,5.42720238 14.7289096,5.42720238 Z M12.4765593,11.8849405 C12.2525819,11.8849405 12.0651356,12.0402976 12.0178249,12.2492262 L11.4321299,12.2492262 C11.3848192,12.0402976 11.1973729,11.8849405 10.9733955,11.8849405 L10.9727966,11.8849405 C10.924887,11.8849405 10.8793729,11.8914881 10.8356554,11.9045833 L10.5452034,11.4039881 C10.6380282,11.318869 10.6967175,11.1968452 10.6967175,11.061131 C10.6967175,10.9254167 10.6380282,10.8033929 10.5452034,10.7182738 L10.8362542,10.2170833 C10.8793729,10.2307738 10.9254859,10.2373214 10.9733955,10.2373214 C11.1973729,10.2373214 11.3848192,10.0819643 11.4321299,9.87303571 L12.0178249,9.87303571 C12.0651356,10.0819643 12.2525819,10.2373214 12.4765593,10.2373214 L12.4771582,10.2373214 L12.4777571,10.2373214 C12.5256667,10.2373214 12.5723785,10.2301786 12.6154972,10.2170833 L12.9059492,10.7170833 C12.8125254,10.8027976 12.7538362,10.9248214 12.7538362,11.061131 C12.7538362,11.1974405 12.8125254,11.3194643 12.9059492,11.4051786 L12.6154972,11.9051786 C12.5717797,11.8920833 12.5250678,11.8849405 12.4765593,11.8849405 Z M12.4777571,2.4885119 C12.5256667,2.4885119 12.5729774,2.48136905 12.6166949,2.46767857 L12.9071469,2.96827381 C12.8137232,3.05339286 12.754435,3.1760119 12.754435,3.31232143 C12.754435,3.44863095 12.8131243,3.57065476 12.9071469,3.65636905 L12.6166949,4.15636905 C12.5729774,4.14267857 12.5256667,4.13553571 12.4777571,4.13553571 C12.2531808,4.13553571 12.0663333,4.2914881 12.0184237,4.49982143 L11.4333277,4.49982143 C11.3860169,4.2914881 11.1985706,4.13553571 10.9739944,4.13553571 C10.9266836,4.13553571 10.8799718,4.14267857 10.8368531,4.15577381 L10.5458023,3.65517857 C10.639226,3.56946429 10.6973164,3.44803571 10.6973164,3.31232143 C10.6973164,3.17660714 10.6386271,3.05458333 10.5458023,2.96946429 L10.8368531,2.46827381 C10.8799718,2.48136905 10.9260847,2.4885119 10.9733955,2.4885119 L10.9739944,2.4885119 C11.1985706,2.4885119 11.3860169,2.33255952 11.4333277,2.12422619 L12.0184237,2.12422619 C12.0663333,2.33255952 12.2531808,2.4885119 12.4777571,2.4885119 Z M12.9077458,6.23970238 L12.6172938,6.73970238 C12.5729774,6.7260119 12.5262655,6.71827381 12.4777571,6.71827381 C12.2178475,6.71827381 12.0070452,6.92779762 12.0070452,7.18672619 C12.0070452,7.44505952 12.2178475,7.65458333 12.4777571,7.65458333 C12.5262655,7.65458333 12.5729774,7.64744048 12.6172938,7.63375 L12.9077458,8.13375 C12.8137232,8.21886905 12.754435,8.3414881 12.754435,8.47779762 C12.754435,8.61470238 12.8137232,8.73672619 12.9077458,8.82303571 L12.6172938,9.32244048 C12.5729774,9.30875 12.5262655,9.30160714 12.4777571,9.30160714 L12.4771582,9.30160714 L12.4765593,9.30160714 C12.2525819,9.30160714 12.0651356,9.45755952 12.0178249,9.6664881 L11.4321299,9.6664881 C11.3848192,9.45755952 11.1973729,9.30160714 10.9733955,9.30160714 C10.7134859,9.30160714 10.5026836,9.51113095 10.5026836,9.76946429 C10.5026836,9.90636905 10.5613729,10.0283929 10.6553955,10.1141071 L10.3649435,10.6141071 C10.3206271,10.6004167 10.2739153,10.5932738 10.2254068,10.5932738 L10.2248079,10.5932738 C10.0008305,10.5932738 9.81338418,10.7492262 9.76607345,10.9575595 L9.18037853,10.9575595 C9.13246893,10.7492262 8.94562147,10.5932738 8.7210452,10.5932738 C8.46113559,10.5932738 8.25033333,10.8027976 8.25033333,11.061131 C8.25033333,11.1974405 8.30962147,11.3200595 8.40364407,11.4057738 L8.11319209,11.9051786 C8.06947458,11.8920833 8.02276271,11.8849405 7.97485311,11.8849405 L7.97425424,11.8849405 L7.97365537,11.8849405 C7.92574576,11.8849405 7.88023164,11.8914881 7.83651412,11.9045833 L7.54666102,11.4045833 C7.63948588,11.318869 7.69817514,11.1968452 7.69817514,11.061131 C7.69817514,10.8027976 7.48737288,10.5932738 7.22686441,10.5932738 C7.00288701,10.5932738 6.81544068,10.7492262 6.76812994,10.9575595 L6.18243503,10.9575595 C6.13512429,10.7492262 5.94827684,10.5932738 5.72370056,10.5932738 L5.72310169,10.5932738 C5.67519209,10.5932738 5.62848023,10.6004167 5.58536158,10.6135119 L5.29431073,10.1135119 C5.38773446,10.0277976 5.44582486,9.90577381 5.44582486,9.76946429 C5.44582486,9.51113095 5.2350226,9.30160714 4.97511299,9.30160714 C4.75113559,9.30160714 4.56368927,9.45755952 4.51637853,9.6664881 L3.93068362,9.6664881 C3.88337288,9.45755952 3.69592655,9.30160714 3.47135028,9.30160714 L3.47075141,9.30160714 L3.47015254,9.30160714 C3.42164407,9.30160714 3.37553107,9.30875 3.33181356,9.32184524 L3.04136158,8.82184524 C3.13418644,8.73613095 3.19347458,8.61410714 3.19347458,8.47779762 C3.19347458,8.34208333 3.13418644,8.22005952 3.04136158,8.13494048 L3.33181356,7.63434524 C3.37553107,7.64744048 3.42164407,7.65458333 3.47015254,7.65458333 C3.73006215,7.65458333 3.94086441,7.44505952 3.94086441,7.18672619 C3.94086441,6.92779762 3.73006215,6.71827381 3.47015254,6.71827381 C3.42164407,6.71827381 3.37553107,6.7260119 3.33181356,6.73910714 L3.04136158,6.2385119 C3.13418644,6.15339286 3.19347458,6.03136905 3.19347458,5.89505952 C3.19347458,5.75934524 3.13418644,5.63732143 3.04136158,5.55160714 L3.33181356,5.0510119 C3.37553107,5.06470238 3.42164407,5.07184524 3.47015254,5.07184524 L3.47075141,5.07184524 L3.47135028,5.07184524 C3.69592655,5.07184524 3.88337288,4.91589286 3.93068362,4.70696429 L4.51637853,4.70696429 C4.56368927,4.91589286 4.75113559,5.07184524 4.97511299,5.07184524 C5.2350226,5.07184524 5.44582486,4.86232143 5.44582486,4.6039881 C5.44582486,4.46767857 5.38773446,4.34565476 5.29431073,4.25994048 L5.58476271,3.75994048 C5.62848023,3.77303571 5.67459322,3.78017857 5.72190395,3.78017857 L5.72250282,3.78017857 L5.72310169,3.78017857 C5.9470791,3.78017857 6.13452542,3.62422619 6.18183616,3.41589286 L6.76633333,3.41589286 C6.81424294,3.62422619 7.0010904,3.78017857 7.22566667,3.78017857 C7.48557627,3.78017857 7.69637853,3.57065476 7.69637853,3.31232143 C7.69637853,3.1760119 7.63768927,3.0539881 7.54486441,2.96886905 L7.83531638,2.46827381 C7.8790339,2.48136905 7.92514689,2.4885119 7.9730565,2.4885119 L7.97365537,2.4885119 L7.97425424,2.4885119 C8.02276271,2.4885119 8.06947458,2.48136905 8.11379096,2.46767857 L8.40424294,2.96767857 C8.31022034,3.05339286 8.2509322,3.17541667 8.2509322,3.31232143 C8.2509322,3.57065476 8.46173446,3.78017857 8.72224294,3.78017857 C8.94622034,3.78017857 9.13366667,3.62422619 9.1809774,3.41589286 L9.76667232,3.41589286 C9.81398305,3.62422619 10.0014294,3.78017857 10.2254068,3.78017857 L10.2260056,3.78017857 L10.2266045,3.78017857 C10.275113,3.78017857 10.3218249,3.77303571 10.3661412,3.75934524 L10.6559944,4.25934524 C10.5625706,4.34505952 10.5032825,4.46708333 10.5032825,4.6039881 C10.5032825,4.86232143 10.7140847,5.07184524 10.9739944,5.07184524 C11.1985706,5.07184524 11.3860169,4.91589286 11.4333277,4.70696429 L12.0184237,4.70696429 C12.0663333,4.91589286 12.2531808,5.07184524 12.4777571,5.07184524 C12.5262655,5.07184524 12.5729774,5.06470238 12.6172938,5.0510119 L12.9077458,5.55041667 C12.8137232,5.63613095 12.754435,5.75875 12.754435,5.89505952 C12.754435,6.03196429 12.8137232,6.1539881 12.9077458,6.23970238 Z M7.22686441,13.1760119 C7.00288701,13.1760119 6.81544068,13.3319643 6.76812994,13.5402976 L6.18243503,13.5402976 C6.13512429,13.3319643 5.94827684,13.1760119 5.72370056,13.1760119 C5.67579096,13.1760119 5.62967797,13.1831548 5.58655932,13.19625 L5.29550847,12.6956548 C5.38833333,12.6099405 5.4470226,12.4885119 5.4470226,12.3527976 C5.4470226,12.2170833 5.38833333,12.0950595 5.29550847,12.0099405 L5.58655932,11.50875 C5.62967797,11.5218452 5.67579096,11.5289881 5.72310169,11.5289881 L5.72370056,11.5289881 C5.94827684,11.5289881 6.13512429,11.373631 6.18243503,11.1647024 L6.76812994,11.1647024 C6.81544068,11.373631 7.00288701,11.5289881 7.22686441,11.5289881 C7.27537288,11.5289881 7.32208475,11.5218452 7.36580226,11.50875 L7.65625424,12.0075595 C7.56163277,12.0932738 7.50234463,12.2158929 7.50234463,12.3527976 C7.50234463,12.4897024 7.56163277,12.6117262 7.65625424,12.6974405 L7.36580226,13.1968452 C7.32208475,13.1831548 7.27537288,13.1760119 7.22686441,13.1760119 Z M8.7210452,13.1760119 C8.67373446,13.1760119 8.62762147,13.1831548 8.58390395,13.19625 L8.29345198,12.69625 C8.38687571,12.611131 8.44616384,12.4891071 8.44616384,12.3527976 C8.44616384,12.2164881 8.38687571,12.0944643 8.29345198,12.00875 L8.58390395,11.50875 C8.62762147,11.5218452 8.67373446,11.5289881 8.7210452,11.5289881 C8.94562147,11.5289881 9.13246893,11.373631 9.18037853,11.1647024 L9.76607345,11.1647024 C9.81338418,11.373631 10.0008305,11.5289881 10.2248079,11.5289881 L10.2254068,11.5289881 C10.2739153,11.5289881 10.3200282,11.5218452 10.3637458,11.50875 L10.6541977,12.00875 C10.560774,12.0944643 10.5020847,12.2164881 10.5020847,12.3527976 C10.5020847,12.4891071 10.560774,12.611131 10.6541977,12.6968452 L10.3637458,13.1968452 C10.3200282,13.1831548 10.2739153,13.1760119 10.2254068,13.1760119 L10.2248079,13.1760119 C10.0008305,13.1760119 9.81338418,13.3319643 9.76607345,13.5402976 L9.18037853,13.5402976 C9.13246893,13.3319643 8.94562147,13.1760119 8.7210452,13.1760119 Z M13.2251469,1.19744048 C13.4497232,1.19744048 13.6371695,1.0414881 13.6844802,0.832559524 L14.2701751,0.832559524 C14.3174859,1.0414881 14.5049322,1.19744048 14.7289096,1.19744048 C14.7774181,1.19744048 14.8241299,1.18970238 14.8678475,1.17660714 L15.1582994,1.67660714 C15.0648757,1.76232143 15.0061864,1.88434524 15.0061864,2.02065476 C15.0061864,2.15696429 15.0648757,2.2789881 15.1582994,2.36470238 L14.8678475,2.86470238 C14.8241299,2.85160714 14.7774181,2.84446429 14.7289096,2.84446429 C14.5049322,2.84446429 14.3174859,2.99982143 14.2701751,3.20875 L13.6844802,3.20875 C13.6365706,2.99982143 13.4497232,2.84446429 13.2251469,2.84446429 C13.1778362,2.84446429 13.1317232,2.8510119 13.0880056,2.86470238 L12.7975537,2.3635119 C12.8897797,2.27839286 12.9484689,2.15636905 12.9484689,2.02065476 C12.9484689,1.88494048 12.8897797,1.76291667 12.7975537,1.67779762 L13.0880056,1.17660714 C13.1317232,1.18970238 13.1778362,1.19744048 13.2251469,1.19744048 Z M8.72224294,1.19744048 C8.94622034,1.19744048 9.13366667,1.0414881 9.1809774,0.832559524 L9.76667232,0.832559524 C9.81398305,1.0414881 10.0014294,1.19744048 10.2254068,1.19744048 C10.2739153,1.19744048 10.3206271,1.18970238 10.3643446,1.17660714 L10.6547966,1.67660714 C10.5613729,1.76232143 10.5026836,1.88434524 10.5026836,2.02065476 C10.5026836,2.15696429 10.5613729,2.2789881 10.6547966,2.36470238 L10.3643446,2.86470238 C10.3206271,2.8510119 10.2745141,2.84446429 10.2266045,2.84446429 L10.2260056,2.84446429 L10.2254068,2.84446429 C10.0014294,2.84446429 9.81398305,2.99982143 9.76667232,3.20875 L9.1809774,3.20875 C9.13366667,2.99982143 8.94622034,2.84446429 8.72224294,2.84446429 C8.67433333,2.84446429 8.62822034,2.8510119 8.58450282,2.86470238 L8.29405085,2.3635119 C8.38687571,2.27839286 8.44556497,2.15636905 8.44556497,2.02065476 C8.44556497,1.88494048 8.38687571,1.76291667 8.29405085,1.67779762 L8.58450282,1.17660714 C8.62822034,1.18970238 8.67433333,1.19744048 8.72224294,1.19744048 Z M5.72190395,1.19744048 C5.94648023,1.19744048 6.13392655,1.0414881 6.18123729,0.832559524 L6.7669322,0.832559524 C6.81424294,1.0414881 7.0010904,1.19744048 7.22566667,1.19744048 C7.27357627,1.19744048 7.32088701,1.18970238 7.36460452,1.17660714 L7.6550565,1.67660714 C7.56163277,1.76232143 7.50234463,1.88434524 7.50234463,2.02065476 C7.50234463,2.15696429 7.56163277,2.2789881 7.6550565,2.36470238 L7.36460452,2.86470238 C7.32088701,2.85160714 7.27357627,2.84446429 7.22566667,2.84446429 C7.0010904,2.84446429 6.81424294,2.99982143 6.7669322,3.20875 L6.18183616,3.20875 C6.13452542,2.99982143 5.9470791,2.84446429 5.72310169,2.84446429 L5.72250282,2.84446429 L5.72190395,2.84446429 C5.67459322,2.84446429 5.62848023,2.8510119 5.58476271,2.86410714 L5.29431073,2.36410714 C5.38773446,2.27839286 5.44582486,2.15636905 5.44582486,2.02065476 C5.44582486,1.88434524 5.38773446,1.76232143 5.29431073,1.67720238 L5.58476271,1.17660714 C5.62788136,1.18970238 5.67459322,1.19744048 5.72190395,1.19744048 Z M3.47135028,2.4885119 C3.69592655,2.4885119 3.88337288,2.33255952 3.93068362,2.12422619 L4.51577966,2.12422619 C4.5630904,2.33255952 4.74993785,2.4885119 4.97451412,2.4885119 L4.97511299,2.4885119 C5.02362147,2.4885119 5.06973446,2.48136905 5.11405085,2.46827381 L5.40390395,2.96767857 C5.31048023,3.05339286 5.25119209,3.17541667 5.25119209,3.31232143 C5.25119209,3.44863095 5.31048023,3.57125 5.40390395,3.65696429 L5.11405085,4.15636905 C5.07033333,4.14267857 5.02362147,4.13553571 4.97511299,4.13553571 C4.75113559,4.13553571 4.56368927,4.2914881 4.51577966,4.49982143 L3.93068362,4.49982143 C3.88337288,4.2914881 3.69592655,4.13553571 3.47135028,4.13553571 L3.47075141,4.13553571 L3.47015254,4.13553571 C3.42284181,4.13553571 3.37732768,4.14267857 3.33420904,4.15577381 L3.04375706,3.65517857 C3.13658192,3.56946429 3.19467232,3.44803571 3.19467232,3.31232143 C3.19467232,3.17660714 3.13658192,3.05458333 3.04375706,2.96946429 L3.33420904,2.46827381 C3.37792655,2.48136905 3.42403955,2.4885119 3.47135028,2.4885119 Z M0.79020904,4.26053571 L1.08125989,3.75994048 C1.1249774,3.77303571 1.1710904,3.78017857 1.219,3.78017857 C1.4429774,3.78017857 1.63042373,3.62422619 1.67773446,3.41589286 L2.26342938,3.41589286 C2.31074011,3.62422619 2.49758757,3.78017857 2.72216384,3.78017857 L2.72276271,3.78017857 L2.72396045,3.78017857 C2.77187006,3.78017857 2.81798305,3.77303571 2.86110169,3.75994048 L3.15155367,4.25994048 C3.05812994,4.34505952 2.99884181,4.46767857 2.99884181,4.6039881 C2.99884181,4.73970238 3.05812994,4.86232143 3.15155367,4.94744048 L2.86110169,5.44803571 C2.81738418,5.43434524 2.77067232,5.42720238 2.72216384,5.42720238 C2.49758757,5.42720238 2.31074011,5.58315476 2.26342938,5.7914881 L1.67773446,5.7914881 C1.63042373,5.58315476 1.4429774,5.42720238 1.219,5.42720238 C1.1710904,5.42720238 1.1249774,5.43434524 1.08125989,5.44744048 L0.79020904,4.94684524 C0.883632768,4.86113095 0.941723164,4.73970238 0.941723164,4.6039881 C0.941723164,4.46827381 0.883632768,4.34625 0.79020904,4.26053571 Z M0.79020904,6.84327381 L1.08125989,6.34327381 C1.1249774,6.35577381 1.1710904,6.3635119 1.219,6.3635119 C1.4429774,6.3635119 1.63042373,6.20696429 1.67773446,5.99863095 L2.26342938,5.99863095 C2.31074011,6.20696429 2.49758757,6.3635119 2.72216384,6.3635119 C2.77067232,6.3635119 2.81738418,6.35577381 2.86110169,6.34267857 L3.15155367,6.84267857 C3.05812994,6.92779762 2.99884181,7.05041667 2.99884181,7.18672619 C2.99884181,7.32303571 3.05812994,7.44505952 3.15155367,7.53077381 L2.86110169,8.03077381 C2.81738418,8.01767857 2.77067232,8.00994048 2.72216384,8.00994048 C2.49758757,8.00994048 2.31074011,8.16589286 2.26342938,8.37482143 L1.67773446,8.37482143 C1.63042373,8.16589286 1.4429774,8.00994048 1.219,8.00994048 C1.1710904,8.00994048 1.1249774,8.01767857 1.08125989,8.03017857 L0.79020904,7.52958333 C0.883632768,7.44446429 0.941723164,7.32244048 0.941723164,7.18672619 C0.941723164,7.0510119 0.883632768,6.9289881 0.79020904,6.84327381 Z M1.219,10.5932738 C1.1710904,10.5932738 1.1249774,10.6004167 1.08125989,10.6135119 L0.79020904,10.1129167 C0.883632768,10.0272024 0.941723164,9.90517857 0.941723164,9.76946429 C0.941723164,9.63375 0.883632768,9.51232143 0.79020904,9.42660714 L1.08125989,8.9260119 C1.1249774,8.93910714 1.1710904,8.94625 1.219,8.94625 C1.4429774,8.94625 1.63042373,8.79029762 1.67773446,8.58196429 L2.26342938,8.58196429 C2.31074011,8.79029762 2.49758757,8.94625 2.72216384,8.94625 C2.77067232,8.94625 2.81738418,8.93910714 2.86110169,8.92541667 L3.15155367,9.42541667 C3.05812994,9.51113095 2.99884181,9.63315476 2.99884181,9.76946429 C2.99884181,9.90577381 3.05812994,10.0283929 3.15155367,10.1135119 L2.86110169,10.6135119 C2.81798305,10.6004167 2.77187006,10.5932738 2.72396045,10.5932738 L2.72276271,10.5932738 L2.72216384,10.5932738 C2.49758757,10.5932738 2.31074011,10.7492262 2.26342938,10.9575595 L1.67773446,10.9575595 C1.63042373,10.7492262 1.4429774,10.5932738 1.219,10.5932738 Z M3.47135028,11.8849405 C3.42403955,11.8849405 3.37792655,11.8920833 3.33420904,11.9051786 L3.04375706,11.4039881 C3.13658192,11.318869 3.19467232,11.1968452 3.19467232,11.061131 C3.19467232,10.9254167 3.13658192,10.8033929 3.04375706,10.7182738 L3.33420904,10.2176786 C3.37732768,10.2307738 3.42284181,10.2373214 3.47015254,10.2373214 L3.47075141,10.2373214 L3.47135028,10.2373214 C3.69592655,10.2373214 3.88337288,10.0819643 3.93068362,9.87303571 L4.51577966,9.87303571 C4.56368927,10.0819643 4.75113559,10.2373214 4.97511299,10.2373214 C5.02362147,10.2373214 5.07033333,10.2301786 5.11405085,10.2170833 L5.40450282,10.7170833 C5.3110791,10.8027976 5.25179096,10.9248214 5.25179096,11.061131 C5.25179096,11.1974405 5.3110791,11.3194643 5.40450282,11.4051786 L5.11405085,11.9051786 C5.07033333,11.8920833 5.02422034,11.8849405 4.97571186,11.8849405 L4.97511299,11.8849405 C4.75113559,11.8849405 4.56368927,12.0402976 4.51577966,12.2492262 L3.93068362,12.2492262 C3.88337288,12.0402976 3.69592655,11.8849405 3.47135028,11.8849405 Z M12.7538362,13.6444643 C12.7538362,13.6516071 12.754435,13.6593452 12.7550339,13.6664881 C12.7550339,13.6682738 12.754435,13.6700595 12.754435,13.6724405 C12.754435,13.8027976 12.8089322,13.92125 12.8957684,14.006369 L12.6154972,14.4885119 C12.5717797,14.4748214 12.5250678,14.4676786 12.4765593,14.4676786 C12.2525819,14.4676786 12.0651356,14.623631 12.0178249,14.8319643 L11.4321299,14.8319643 C11.3848192,14.623631 11.1973729,14.4676786 10.9733955,14.4676786 C10.9254859,14.4676786 10.8793729,14.4748214 10.8362542,14.4879167 L10.5452034,13.9873214 C10.6380282,13.9016071 10.6967175,13.7801786 10.6967175,13.6444643 C10.6967175,13.50875 10.6380282,13.3867262 10.5452034,13.3010119 L10.8356554,12.8004167 C10.8793729,12.8135119 10.924887,12.8206548 10.9727966,12.8206548 C10.9733955,12.8206548 10.9733955,12.8206548 10.9733955,12.8206548 C11.1973729,12.8206548 11.3848192,12.6647024 11.4321299,12.456369 L12.0178249,12.456369 C12.0651356,12.6647024 12.2525819,12.8206548 12.4765593,12.8206548 C12.5250678,12.8206548 12.5717797,12.8135119 12.6154972,12.7998214 L12.9059492,13.3004167 C12.8125254,13.3855357 12.7538362,13.5081548 12.7538362,13.6444643 Z M15.1582994,17.8694643 L14.8816215,18.3468452 C14.8337119,18.3301786 14.782209,18.32125 14.7289096,18.32125 C14.5049322,18.32125 14.3174859,18.4772024 14.2701751,18.6855357 L13.6844802,18.6855357 C13.6371695,18.4772024 13.4497232,18.32125 13.2251469,18.32125 C13.1730452,18.32125 13.1221412,18.3301786 13.0748305,18.34625 L12.7975537,17.868869 C12.8897797,17.7831548 12.9484689,17.661131 12.9484689,17.5254167 C12.9484689,17.3897024 12.8897797,17.2682738 12.7975537,17.1825595 L13.0778249,16.6992262 C13.1245367,16.7147024 13.1742429,16.7230357 13.2251469,16.7230357 C13.4497232,16.7230357 13.6365706,16.5670833 13.6844802,16.35875 L14.2701751,16.35875 C14.3174859,16.5670833 14.5049322,16.7230357 14.7289096,16.7230357 C14.7810113,16.7230357 14.8313164,16.7141071 14.8780282,16.698631 L15.1582994,17.181369 C15.0648757,17.2670833 15.0061864,17.3891071 15.0061864,17.5254167 C15.0061864,17.6617262 15.0648757,17.7843452 15.1582994,17.8694643 Z M14.7289096,14.1402976 C14.7774181,14.1402976 14.8241299,14.1325595 14.8678475,14.1194643 L15.1505141,14.6057738 C15.0612825,14.6908929 15.0061864,14.8105357 15.0061864,14.9426786 C15.0061864,14.94625 15.0061864,14.9498214 15.0067853,14.9527976 C15.0061864,14.956369 15.0061864,14.9599405 15.0061864,14.9635119 C15.0061864,15.09625 15.0612825,15.2152976 15.1505141,15.3004167 L14.8678475,15.7867262 C14.8241299,15.7730357 14.7774181,15.7658929 14.7289096,15.7658929 C14.5049322,15.7658929 14.3174859,15.9218452 14.2701751,16.1301786 L13.6844802,16.1301786 C13.6371695,15.9218452 13.4497232,15.7658929 13.2251469,15.7658929 C13.1778362,15.7658929 13.1317232,15.7730357 13.0880056,15.786131 L12.805339,15.2992262 C12.8933729,15.2141071 12.9484689,15.0956548 12.9484689,14.9635119 C12.9484689,14.9599405 12.9484689,14.956369 12.9484689,14.9527976 C12.9484689,14.9498214 12.9484689,14.94625 12.9484689,14.9426786 C12.9484689,14.9248214 12.9472712,14.9069643 12.9454746,14.8897024 C12.9346949,14.7777976 12.883791,14.6772024 12.8077345,14.6027976 L13.0880056,14.1194643 C13.1317232,14.1325595 13.1778362,14.1402976 13.2251469,14.1402976 C13.4497232,14.1402976 13.6371695,13.9843452 13.6844802,13.7754167 L14.2701751,13.7754167 C14.3174859,13.9843452 14.5049322,14.1402976 14.7289096,14.1402976 Z M15.1582994,10.1135119 L14.8678475,10.6141071 C14.8241299,10.6004167 14.7774181,10.5932738 14.7289096,10.5932738 C14.5049322,10.5932738 14.3174859,10.7492262 14.2701751,10.9575595 L13.6844802,10.9575595 C13.6371695,10.7492262 13.4497232,10.5932738 13.2251469,10.5932738 L13.224548,10.5932738 C13.1772373,10.5932738 13.1311243,10.6004167 13.0880056,10.6135119 L12.7975537,10.1129167 C12.8897797,10.0272024 12.9484689,9.90517857 12.9484689,9.76946429 C12.9484689,9.63375 12.8897797,9.51232143 12.7975537,9.42660714 L13.0880056,8.9260119 C13.1317232,8.93910714 13.1778362,8.94625 13.2251469,8.94625 C13.4497232,8.94625 13.6371695,8.79029762 13.6844802,8.58196429 L14.2701751,8.58196429 C14.3174859,8.79029762 14.5049322,8.94625 14.7289096,8.94625 C14.7774181,8.94625 14.8241299,8.93910714 14.8678475,8.92541667 L15.1582994,9.42541667 C15.0648757,9.51113095 15.0061864,9.63315476 15.0061864,9.76946429 C15.0061864,9.90577381 15.0648757,10.0283929 15.1582994,10.1135119 Z M15.1582994,7.53077381 L14.8678475,8.03077381 C14.8241299,8.01767857 14.7774181,8.00994048 14.7289096,8.00994048 C14.5049322,8.00994048 14.3174859,8.16589286 14.2701751,8.37482143 L13.6844802,8.37482143 C13.6371695,8.16589286 13.4497232,8.00994048 13.2251469,8.00994048 C13.1778362,8.00994048 13.1317232,8.01767857 13.0880056,8.03017857 L12.7975537,7.52958333 C12.8897797,7.44446429 12.9484689,7.32244048 12.9484689,7.18672619 C12.9484689,7.0510119 12.8897797,6.9289881 12.7975537,6.84327381 L13.0880056,6.34327381 C13.1317232,6.35577381 13.1778362,6.3635119 13.2251469,6.3635119 C13.4497232,6.3635119 13.6371695,6.20696429 13.6844802,5.99863095 L14.2701751,5.99863095 C14.3174859,6.20696429 14.5049322,6.3635119 14.7289096,6.3635119 C14.7774181,6.3635119 14.8241299,6.35577381 14.8678475,6.34267857 L15.1582994,6.84267857 C15.0648757,6.92779762 15.0061864,7.05041667 15.0061864,7.18672619 C15.0061864,7.32303571 15.0648757,7.44505952 15.1582994,7.53077381 Z M15.4768983,5.07184524 C15.7368079,5.07184524 15.9476102,4.86232143 15.9476102,4.6039881 C15.9476102,4.34505952 15.7368079,4.13553571 15.4768983,4.13553571 C15.4289887,4.13553571 15.3828757,4.14267857 15.3385593,4.15636905 L15.0481073,3.65577381 C15.1415311,3.57005952 15.1996215,3.44803571 15.1996215,3.31232143 C15.1996215,3.1760119 15.1415311,3.0539881 15.0481073,2.96886905 L15.3385593,2.46827381 C15.3828757,2.48136905 15.4289887,2.4885119 15.4768983,2.4885119 C15.7368079,2.4885119 15.9476102,2.2789881 15.9476102,2.02065476 C15.9476102,1.76232143 15.7368079,1.55279762 15.4768983,1.55279762 C15.4289887,1.55279762 15.3828757,1.55994048 15.3385593,1.57303571 L15.0481073,1.07303571 C15.1415311,0.98672619 15.1996215,0.864702381 15.1996215,0.728988095 C15.1996215,0.470654762 14.9888192,0.261130952 14.7289096,0.261130952 C14.5049322,0.261130952 14.3174859,0.417083333 14.2701751,0.626011905 L13.6844802,0.626011905 C13.6371695,0.417083333 13.4497232,0.261130952 13.2251469,0.261130952 C12.9652373,0.261130952 12.754435,0.470654762 12.754435,0.728988095 C12.754435,0.865297619 12.8137232,0.987916667 12.9077458,1.07363095 L12.6172938,1.57363095 C12.5729774,1.55994048 12.5262655,1.55279762 12.4777571,1.55279762 C12.2531808,1.55279762 12.0663333,1.70815476 12.0184237,1.91708333 L11.4333277,1.91708333 C11.3860169,1.70815476 11.1985706,1.55279762 10.9739944,1.55279762 L10.9733955,1.55279762 C10.9254859,1.55279762 10.878774,1.55994048 10.8356554,1.57303571 L10.5446045,1.07303571 C10.6380282,0.98672619 10.6967175,0.865297619 10.6967175,0.728988095 C10.6967175,0.470654762 10.4859153,0.261130952 10.2254068,0.261130952 C10.0014294,0.261130952 9.81398305,0.417083333 9.76667232,0.626011905 L9.1809774,0.626011905 C9.13366667,0.417083333 8.94622034,0.261130952 8.72224294,0.261130952 C8.46173446,0.261130952 8.2509322,0.470654762 8.2509322,0.728988095 C8.2509322,0.865297619 8.31022034,0.987916667 8.40424294,1.07363095 L8.11379096,1.57363095 C8.06947458,1.55994048 8.02276271,1.55279762 7.97425424,1.55279762 L7.97365537,1.55279762 L7.9730565,1.55279762 C7.92514689,1.55279762 7.8790339,1.55994048 7.83531638,1.57303571 L7.54486441,1.07303571 C7.63768927,0.98672619 7.69637853,0.865297619 7.69637853,0.728988095 C7.69637853,0.470654762 7.48557627,0.261130952 7.22566667,0.261130952 C7.0010904,0.261130952 6.81424294,0.417083333 6.76633333,0.626011905 L6.18123729,0.626011905 C6.13392655,0.417083333 5.94648023,0.261130952 5.72190395,0.261130952 C5.46199435,0.261130952 5.25119209,0.470654762 5.25119209,0.728988095 C5.25119209,0.865297619 5.31048023,0.987916667 5.40390395,1.07363095 L5.11405085,1.57303571 C5.06973446,1.55994048 5.02362147,1.55279762 4.97511299,1.55279762 L4.97451412,1.55279762 C4.74993785,1.55279762 4.5630904,1.70815476 4.51577966,1.91708333 L3.93068362,1.91708333 C3.88337288,1.70815476 3.69592655,1.55279762 3.47135028,1.55279762 C3.21144068,1.55279762 3.00063842,1.76232143 3.00063842,2.02065476 C3.00063842,2.15696429 3.05992655,2.27958333 3.15394915,2.36529762 L2.86349718,2.86470238 C2.81918079,2.85160714 2.77246893,2.84446429 2.72396045,2.84446429 L2.72276271,2.84446429 L2.72216384,2.84446429 C2.49758757,2.84446429 2.31074011,2.99982143 2.26342938,3.20875 L1.67773446,3.20875 C1.63042373,2.99982143 1.4429774,2.84446429 1.219,2.84446429 C0.958491525,2.84446429 0.747689266,3.0539881 0.747689266,3.31232143 C0.747689266,3.44863095 0.806977401,3.57125 0.90040113,3.65636905 L0.610548023,4.15636905 C0.566231638,4.14267857 0.519519774,4.13553571 0.471011299,4.13553571 C0.211101695,4.13553571 -0.000299435028,4.34505952 -0.000299435028,4.6039881 C-0.000299435028,4.86232143 0.211101695,5.07184524 0.471011299,5.07184524 C0.519519774,5.07184524 0.566231638,5.06470238 0.610548023,5.0510119 L0.90040113,5.55041667 C0.806977401,5.63613095 0.747689266,5.75875 0.747689266,5.89505952 C0.747689266,6.03196429 0.806977401,6.1539881 0.90040113,6.23970238 L0.610548023,6.73970238 C0.566231638,6.7260119 0.519519774,6.71827381 0.471011299,6.71827381 C0.211101695,6.71827381 -0.000299435028,6.92779762 -0.000299435028,7.18672619 C-0.000299435028,7.44505952 0.211101695,7.65458333 0.471011299,7.65458333 C0.519519774,7.65458333 0.566231638,7.64744048 0.610548023,7.63375 L0.90040113,8.13375 C0.806977401,8.21886905 0.747689266,8.3414881 0.747689266,8.47779762 C0.747689266,8.61470238 0.806977401,8.73672619 0.90040113,8.82303571 L0.610548023,9.32244048 C0.566231638,9.30875 0.519519774,9.30160714 0.471011299,9.30160714 C0.211101695,9.30160714 -0.000299435028,9.51113095 -0.000299435028,9.76946429 C-0.000299435028,10.0277976 0.211101695,10.2373214 0.471011299,10.2373214 C0.519519774,10.2373214 0.566231638,10.2301786 0.610548023,10.2164881 L0.90040113,10.7164881 C0.806977401,10.8022024 0.747689266,10.9248214 0.747689266,11.061131 C0.747689266,11.3194643 0.958491525,11.5289881 1.219,11.5289881 C1.4429774,11.5289881 1.63042373,11.373631 1.67773446,11.1647024 L2.26342938,11.1647024 C2.31074011,11.373631 2.49758757,11.5289881 2.72216384,11.5289881 L2.72276271,11.5289881 L2.72396045,11.5289881 C2.77246893,11.5289881 2.81918079,11.5218452 2.86349718,11.5081548 L3.15394915,12.0081548 C3.05992655,12.093869 3.00063842,12.2164881 3.00063842,12.3527976 C3.00063842,12.611131 3.21144068,12.8206548 3.47135028,12.8206548 C3.69592655,12.8206548 3.88337288,12.6647024 3.93068362,12.456369 L4.51637853,12.456369 C4.56368927,12.6647024 4.75113559,12.8206548 4.97511299,12.8206548 L4.97571186,12.8206548 C4.97571186,12.8206548 4.97571186,12.8206548 4.97571186,12.8206548 C5.02422034,12.8206548 5.07153107,12.8135119 5.11524859,12.7998214 L5.40570056,13.2998214 C5.31227684,13.3855357 5.25238983,13.5075595 5.25238983,13.6444643 C5.25238983,13.9027976 5.46379096,14.1123214 5.72370056,14.1123214 C5.94827684,14.1123214 6.13512429,13.956369 6.18243503,13.7474405 L6.76812994,13.7474405 C6.81544068,13.956369 7.00288701,14.1123214 7.22686441,14.1123214 C7.48737288,14.1123214 7.69817514,13.9027976 7.69817514,13.6444643 C7.69817514,13.5081548 7.63948588,13.386131 7.54666102,13.3004167 L7.83651412,12.8004167 C7.88023164,12.8135119 7.92574576,12.8206548 7.97365537,12.8206548 C7.97365537,12.8206548 7.97365537,12.8206548 7.97425424,12.8206548 C7.97425424,12.8206548 7.97485311,12.8206548 7.97485311,12.8206548 C8.02276271,12.8206548 8.06947458,12.8135119 8.11319209,12.8004167 L8.40364407,13.2998214 C8.30962147,13.3855357 8.25033333,13.5075595 8.25033333,13.6444643 C8.25033333,13.9027976 8.46113559,14.1123214 8.7210452,14.1123214 C8.94562147,14.1123214 9.13246893,13.956369 9.18037853,13.7474405 L9.76607345,13.7474405 C9.81338418,13.956369 10.0008305,14.1123214 10.2248079,14.1123214 L10.2254068,14.1123214 C10.2739153,14.1123214 10.3206271,14.1051786 10.3649435,14.0914881 L10.6553955,14.5908929 C10.5613729,14.6766071 10.5026836,14.7992262 10.5026836,14.9355357 C10.5026836,15.1944643 10.7134859,15.4039881 10.9733955,15.4039881 C11.1973729,15.4039881 11.3848192,15.2474405 11.4321299,15.0391071 L12.0136328,15.0391071 C12.0501638,15.2617262 12.2435989,15.4319643 12.4777571,15.4319643 C12.5262655,15.4319643 12.5729774,15.4242262 12.6172938,15.4105357 L12.8993616,15.8968452 C12.8107288,15.9819643 12.754435,16.1016071 12.754435,16.2343452 C12.754435,16.2379167 12.7550339,16.2408929 12.7550339,16.2444643 C12.7550339,16.2480357 12.754435,16.2516071 12.754435,16.2551786 C12.754435,16.3879167 12.8101299,16.5069643 12.8993616,16.5920833 L12.6172938,17.0783929 C12.5729774,17.0647024 12.5262655,17.0575595 12.4777571,17.0575595 C12.2178475,17.0575595 12.0070452,17.2670833 12.0070452,17.5254167 C12.0070452,17.7843452 12.2178475,17.993869 12.4777571,17.993869 C12.5262655,17.993869 12.5729774,17.986131 12.6172938,17.9730357 L12.8969661,18.4545833 C12.8095311,18.5391071 12.754435,18.6581548 12.754435,18.7891071 C12.754435,18.793869 12.7550339,18.798631 12.7550339,18.8033929 C12.7550339,18.8075595 12.754435,18.8123214 12.754435,18.8170833 C12.754435,18.948631 12.8095311,19.0670833 12.8969661,19.1522024 L12.625678,19.6182738 C12.579565,19.6027976 12.5292599,19.593869 12.4777571,19.593869 C12.2531808,19.593869 12.0663333,19.7498214 12.0184237,19.95875 L11.4333277,19.95875 C11.3860169,19.7498214 11.1985706,19.593869 10.9739944,19.593869 C10.7140847,19.593869 10.5032825,19.8033929 10.5032825,20.0623214 C10.5032825,20.198631 10.5625706,20.32125 10.6559944,20.406369 L10.3661412,20.906369 C10.3218249,20.8926786 10.275113,20.8855357 10.2266045,20.8855357 C10.0020282,20.8855357 9.81518079,21.0414881 9.76787006,21.2498214 L9.18217514,21.2498214 C9.13426554,21.0414881 8.94681921,20.8855357 8.72284181,20.8855357 C8.4629322,20.8855357 8.25212994,21.0950595 8.25212994,21.3533929 C8.25212994,21.4902976 8.31081921,21.6123214 8.40484181,21.6980357 L8.11438983,22.1980357 C8.07067232,22.1843452 8.02336158,22.1772024 7.97485311,22.1772024 L7.97425424,22.1772024 L7.9730565,22.1772024 C7.92514689,22.1772024 7.8790339,22.1843452 7.83531638,22.1974405 L7.54486441,21.6968452 C7.63768927,21.6117262 7.69637853,21.4897024 7.69637853,21.3533929 C7.69637853,21.0950595 7.48557627,20.8855357 7.22566667,20.8855357 C7.0010904,20.8855357 6.81424294,21.0414881 6.7669322,21.2498214 L6.18123729,21.2498214 C6.13392655,21.0414881 5.94648023,20.8855357 5.72190395,20.8855357 L5.71950847,20.8855357 L5.71711299,20.8855357 C5.66920339,20.8855357 5.6230904,20.8926786 5.57937288,20.906369 L5.2889209,20.4057738 C5.38174576,20.3200595 5.44043503,20.1980357 5.44043503,20.0623214 C5.44043503,19.8033929 5.22963277,19.593869 4.96972316,19.593869 C4.74514689,19.593869 4.55770056,19.7498214 4.51038983,19.95875 L3.93367797,19.95875 C3.8929548,19.7414881 3.70131638,19.5766071 3.47075141,19.5766071 C3.42284181,19.5766071 3.37672881,19.58375 3.3330113,19.5968452 L3.0449548,19.1022024 C3.09346328,19.0557738 3.13119209,18.9998214 3.15574576,18.9373214 C3.18029944,18.8807738 3.19407345,18.8182738 3.19407345,18.7533929 C3.19407345,18.7522024 3.19347458,18.7516071 3.19347458,18.7504167 C3.19347458,18.7498214 3.19407345,18.748631 3.19407345,18.7480357 C3.19407345,18.6117262 3.13538418,18.4897024 3.04255932,18.4045833 L3.32342938,17.9200595 C3.36834463,17.9343452 3.41625424,17.9420833 3.46596045,17.9420833 C3.68275141,17.9420833 3.86540678,17.79625 3.91990395,17.5980357 C3.93367797,17.5533929 3.94206215,17.5057738 3.94206215,17.456369 C3.94206215,17.1980357 3.73066102,16.9885119 3.47075141,16.9885119 C3.42284181,16.9885119 3.37672881,16.9956548 3.3330113,17.00875 L3.04196045,16.5081548 C3.13538418,16.4230357 3.19407345,16.3010119 3.19407345,16.1652976 C3.19407345,15.906369 2.98327119,15.6968452 2.72276271,15.6968452 C2.49878531,15.6968452 2.31133898,15.8527976 2.26402825,16.061131 L1.67833333,16.061131 C1.6310226,15.8527976 1.44357627,15.6968452 1.21959887,15.6968452 C0.959689266,15.6968452 0.748288136,15.906369 0.748288136,16.1652976 C0.748288136,16.3016071 0.807576271,16.4242262 0.90159887,16.5093452 L0.611146893,17.0093452 C0.566830508,16.9956548 0.520118644,16.9885119 0.471610169,16.9885119 C0.211700565,16.9885119 0.000898305085,17.1980357 0.000898305085,17.456369 C0.000898305085,17.7152976 0.211700565,17.9248214 0.471610169,17.9248214 C0.520118644,17.9248214 0.566830508,17.9170833 0.611146893,17.9033929 L0.90159887,18.4033929 C0.807576271,18.4891071 0.748288136,18.611131 0.748288136,18.7480357 C0.748288136,18.748631 0.748887006,18.7498214 0.748887006,18.7504167 C0.748887006,18.7516071 0.748288136,18.7522024 0.748288136,18.7533929 C0.748288136,18.8897024 0.807576271,19.0117262 0.90159887,19.0974405 L0.611146893,19.5974405 C0.566830508,19.58375 0.520118644,19.5766071 0.471610169,19.5766071 C0.211700565,19.5766071 0.000898305085,19.786131 0.000898305085,20.0444643 C0.000898305085,20.3033929 0.211700565,20.5129167 0.471610169,20.5129167 C0.520118644,20.5129167 0.566830508,20.5051786 0.611146893,20.4920833 L0.90159887,20.9914881 C0.807576271,21.0772024 0.748288136,21.1998214 0.748288136,21.336131 C0.748288136,21.5944643 0.959689266,21.8039881 1.21959887,21.8039881 C1.44357627,21.8039881 1.6310226,21.6480357 1.67833333,21.4397024 L2.25564407,21.4397024 C2.29636723,21.6569643 2.48800565,21.8218452 2.71857062,21.8218452 C2.7670791,21.8218452 2.81379096,21.8147024 2.85750847,21.8010119 L3.14796045,22.3010119 C3.05453672,22.386131 2.99524859,22.50875 2.99524859,22.6450595 C2.99524859,22.9033929 3.20605085,23.1129167 3.46596045,23.1129167 C3.69053672,23.1129167 3.87738418,22.9575595 3.92529379,22.748631 L4.51038983,22.748631 C4.55770056,22.9575595 4.74514689,23.1129167 4.96972316,23.1129167 L4.97211864,23.1129167 L4.97451412,23.1129167 C5.0230226,23.1129167 5.06973446,23.1057738 5.11405085,23.0920833 L5.40390395,23.5920833 C5.31048023,23.6777976 5.25119209,23.8004167 5.25119209,23.9367262 C5.25119209,24.1950595 5.46199435,24.4045833 5.72190395,24.4045833 C5.94648023,24.4045833 6.13392655,24.2492262 6.18123729,24.0402976 L6.7669322,24.0402976 C6.81424294,24.2492262 7.0010904,24.4045833 7.22566667,24.4045833 C7.48557627,24.4045833 7.69637853,24.1950595 7.69637853,23.9367262 C7.69637853,23.8010119 7.63768927,23.6789881 7.54486441,23.5932738 L7.83531638,23.0926786 C7.8790339,23.1057738 7.92514689,23.1129167 7.9730565,23.1129167 L7.97425424,23.1129167 L7.97485311,23.1129167 C8.02336158,23.1129167 8.07067232,23.1057738 8.11438983,23.0920833 L8.40484181,23.5920833 C8.31081921,23.6777976 8.25212994,23.8004167 8.25212994,23.9367262 C8.25212994,24.1950595 8.4629322,24.4045833 8.72284181,24.4045833 C8.94681921,24.4045833 9.13426554,24.2492262 9.18217514,24.0402976 L9.76787006,24.0402976 C9.81518079,24.2492262 10.0020282,24.4045833 10.2266045,24.4045833 C10.4865141,24.4045833 10.6973164,24.1950595 10.6973164,23.9367262 C10.6973164,23.8010119 10.6386271,23.6789881 10.5452034,23.5932738 L10.8362542,23.0926786 C10.8799718,23.1057738 10.9260847,23.1129167 10.9739944,23.1129167 C11.1985706,23.1129167 11.3860169,22.9575595 11.4333277,22.748631 L12.0184237,22.748631 C12.0663333,22.9575595 12.2531808,23.1129167 12.4777571,23.1129167 C12.7376667,23.1129167 12.9484689,22.9033929 12.9484689,22.6450595 C12.9484689,22.5093452 12.8897797,22.3873214 12.7969548,22.3016071 L13.0784237,21.8164881 C13.1245367,21.8319643 13.1742429,21.8402976 13.2251469,21.8402976 C13.4497232,21.8402976 13.6371695,21.6843452 13.6844802,21.4754167 L14.2701751,21.4754167 C14.3174859,21.6843452 14.5049322,21.8402976 14.7289096,21.8402976 C14.9888192,21.8402976 15.1996215,21.6307738 15.1996215,21.3724405 C15.1996215,21.236131 15.1415311,21.1141071 15.0481073,21.0283929 L15.3385593,20.5283929 C15.3828757,20.5414881 15.4289887,20.548631 15.4768983,20.548631 C15.7368079,20.548631 15.9476102,20.3391071 15.9476102,20.0807738 C15.9476102,19.8224405 15.7368079,19.6129167 15.4768983,19.6129167 C15.4289887,19.6129167 15.3828757,19.6200595 15.3385593,19.6331548 L15.058887,19.1510119 C15.1457232,19.0658929 15.1996215,18.9480357 15.1996215,18.8170833 C15.1996215,18.8123214 15.1990226,18.8075595 15.1990226,18.8033929 C15.1990226,18.798631 15.1996215,18.793869 15.1996215,18.7891071 C15.1996215,18.6581548 15.1457232,18.5402976 15.058887,18.4551786 L15.3385593,17.9730357 C15.3828757,17.9867262 15.4289887,17.993869 15.4768983,17.993869 C15.7368079,17.993869 15.9476102,17.7843452 15.9476102,17.5254167 C15.9476102,17.2670833 15.7368079,17.0575595 15.4768983,17.0575595 C15.4289887,17.0575595 15.3828757,17.0647024 15.3385593,17.0777976 L15.0564915,16.5914881 C15.1445254,16.506369 15.1996215,16.3873214 15.1996215,16.2551786 C15.1996215,16.2516071 15.1996215,16.2480357 15.1990226,16.2444643 C15.1996215,16.2408929 15.1996215,16.2379167 15.1996215,16.2343452 C15.1996215,16.1022024 15.1445254,15.9831548 15.0564915,15.8980357 L15.3385593,15.411131 C15.3828757,15.4242262 15.4289887,15.4319643 15.4768983,15.4319643 C15.7368079,15.4319643 15.9476102,15.2224405 15.9476102,14.9635119 C15.9476102,14.9599405 15.9470113,14.956369 15.9470113,14.9527976 C15.9470113,14.9498214 15.9476102,14.94625 15.9476102,14.9426786 C15.9476102,14.6843452 15.7368079,14.4748214 15.4768983,14.4748214 C15.4289887,14.4748214 15.3828757,14.4819643 15.3385593,14.4950595 L15.0564915,14.0081548 C15.1445254,13.9230357 15.1996215,13.8039881 15.1996215,13.6724405 C15.1996215,13.668869 15.1996215,13.6652976 15.1990226,13.6617262 C15.1996215,13.6581548 15.1996215,13.6545833 15.1996215,13.6510119 C15.1996215,13.3926786 14.9888192,13.1831548 14.7289096,13.1831548 C14.5049322,13.1831548 14.3174859,13.3385119 14.2701751,13.5474405 L13.685678,13.5474405 C13.6407627,13.3355357 13.4515198,13.1760119 13.224548,13.1760119 C13.1766384,13.1760119 13.1305254,13.1831548 13.0868079,13.1968452 L12.7957571,12.69625 C12.8891808,12.6105357 12.9478701,12.4885119 12.9478701,12.3527976 C12.9478701,12.2164881 12.8891808,12.0950595 12.7957571,12.0093452 L13.0868079,11.50875 C13.1305254,11.5218452 13.1766384,11.5289881 13.224548,11.5289881 L13.2251469,11.5289881 C13.4497232,11.5289881 13.6365706,11.373631 13.6844802,11.1647024 L14.2701751,11.1647024 C14.3174859,11.373631 14.5049322,11.5289881 14.7289096,11.5289881 C14.9888192,11.5289881 15.1996215,11.3194643 15.1996215,11.061131 C15.1996215,10.9254167 15.1415311,10.8033929 15.0481073,10.7176786 L15.3385593,10.2170833 C15.3828757,10.2301786 15.4289887,10.2373214 15.4768983,10.2373214 C15.7368079,10.2373214 15.9476102,10.0277976 15.9476102,9.76946429 C15.9476102,9.51113095 15.7368079,9.30160714 15.4768983,9.30160714 C15.4289887,9.30160714 15.3828757,9.30875 15.3385593,9.32184524 L15.0481073,8.82184524 C15.1415311,8.73613095 15.1996215,8.61410714 15.1996215,8.47779762 C15.1996215,8.34208333 15.1415311,8.22005952 15.0481073,8.13494048 L15.3385593,7.63434524 C15.3828757,7.64744048 15.4289887,7.65458333 15.4768983,7.65458333 C15.7368079,7.65458333 15.9476102,7.44505952 15.9476102,7.18672619 C15.9476102,6.92779762 15.7368079,6.71827381 15.4768983,6.71827381 C15.4289887,6.71827381 15.3828757,6.7260119 15.3385593,6.73910714 L15.0481073,6.2385119 C15.1415311,6.15339286 15.1996215,6.03136905 15.1996215,5.89505952 C15.1996215,5.75934524 15.1415311,5.63732143 15.0481073,5.55160714 L15.3385593,5.0510119 C15.3828757,5.06470238 15.4289887,5.07184524 15.4768983,5.07184524 Z" id="Fill-18" fill="#ffffff" mask="url(#mask-4)"></path>
                </g>
            </g>
        </g>
    </g>
</svg>
